<svg xmlns="http://www.w3.org/2000/svg" viewBox="0 0 300 300">
  <defs>
    <style>
      .cls-1 {
        fill: #ccc;
      }

      .cls-2 {
        fill: none;
        stroke: #e6e6e6;
        stroke-miterlimit: 10;
        stroke-width: 0.75px;
        opacity: 0.01;
      }
    </style>
  </defs>
  <title>bryggio_ui_1</title>
  <g id="Layer_4" data-name="Layer 4">
    <path id="Content" class="cls-1" d="M296.963,112.963H278.786a134.042,134.042,0,0,0-257.645,0H-.037v74H21.141a134.042,134.042,0,0,0,257.645,0h21.177v-74Z"/>
    <g id="Arrows">
      <path d="M88.663,202.463A2.5,2.5,0,0,1,86.9,198.2l42.49-42.491a8.13,8.13,0,0,0,0-11.484L86.9,101.731A2.5,2.5,0,1,1,90.43,98.2l42.49,42.49a13.12,13.12,0,0,1,0,18.555l-42.49,42.49A2.492,2.492,0,0,1,88.663,202.463Z"/>
      <path d="M127.163,202.463A2.5,2.5,0,0,1,125.4,198.2l42.49-42.491a8.13,8.13,0,0,0,0-11.484l-42.49-42.49A2.5,2.5,0,1,1,128.93,98.2l42.49,42.49a13.12,13.12,0,0,1,0,18.555l-42.49,42.49A2.492,2.492,0,0,1,127.163,202.463Z"/>
      <path d="M165.663,202.463A2.5,2.5,0,0,1,163.9,198.2l42.49-42.491a8.13,8.13,0,0,0,0-11.484l-42.49-42.49A2.5,2.5,0,0,1,167.43,98.2l42.49,42.49a13.12,13.12,0,0,1,0,18.555l-42.49,42.49A2.492,2.492,0,0,1,165.663,202.463Z"/>
    </g>
    <g id="Pipe">
      <path d="M296.963,104.963v5H278.391a134.518,134.518,0,0,0-256.855,0H2.963v-5h-3v8H23.771q.442-1.507.92-3a131.505,131.505,0,0,1,250.545,0q.477,1.493.92,3h23.807v-8Z"/>
      <path d="M279.286,186.963h-3.13q-.443,1.507-.92,3a131.505,131.505,0,0,1-250.545,0q-.479-1.493-.92-3H-.037v8h3v-5H21.536a134.518,134.518,0,0,0,256.855,0h18.572v5h3v-8H279.286Z"/>
    </g>
    <rect id="Bound" class="cls-2" x="-0.037" y="-0.037" width="300" height="300"/>
  </g>
</svg>
