<svg id="Pipe-90" xmlns="http://www.w3.org/2000/svg" viewBox="0 0 100 100">
  <defs>
    <style>
      .cls-1 {
        fill: #ccc;
      }

      .cls-2 {
        fill: none;
        stroke: #e6e6e6;
        stroke-miterlimit: 10;
        stroke-width: 0.25px;
        opacity: 0.01;
      }
    </style>
  </defs>
  <title>bryggio_ui_1</title>
  <path id="content" class="cls-1" d="M61,13H0V87H5s8,0,8,8v5H87V39.357C87,25.121,75.584,13,61,13Z"/>
  <g id="pipe">
    <path d="M5,87H0v8H3V90H5c5,0,5,5,5,5v2H5v3h8V95C13,87,5,87,5,87Z"/>
    <path d="M90,97V40h-.013c0-.167.013-.332.013-.5A29.5,29.5,0,0,0,60.5,10c-.168,0-.333.01-.5.013V10H3V5H0v8H60c.167,0,.832,0,1,0,14.584,0,26,12.416,26,27v60h8V97Z"/>
  </g>
  <rect id="bound" class="cls-2" width="100" height="100"/>
</svg>
