<svg xmlns="http://www.w3.org/2000/svg" viewBox="0 0 400 300">
  <defs>
    <style>
      .cls-1 {
        fill: none;
        stroke: #e6e6e6;
        stroke-miterlimit: 10;
        stroke-width: 0.866px;
        opacity: 0.01;
      }

      .cls-2 {
        fill: #ccc;
      }
    </style>
  </defs>
  <title>bryggio_ui_1</title>
  <g id="Filter">
    <rect id="Bound" class="cls-1" width="400" height="300"/>
    <path id="Content" class="cls-2" d="M372.25,113h-8V79c0-.167,0-.832,0-1,0-14.584-12.416-26-27-26H296.5V228h-3V52h-73V228h-3V52h-73V228h-3V52h-73V228h-3V52H62.75c-14.584,0-27,11.416-27,26,0,.168,0,.833,0,1v34H.5v74H35.75v34c0,.167,0,.832,0,1,0,14.584,12.416,26,27,26H103.5V72h3V248h73V72h3V248h73V72h3V248h73V72h3V248h2.75c14.584,0,27-11.416,27-26,0-.168,0-.833,0-1V187H399.5V113H372.25Z"/>
    <g id="Pipe">
      <path d="M396.75,105v5h-29.5V79h-.013c0-.167.013-.332.013-.5A29.5,29.5,0,0,0,337.75,49c-.168,0-.333.01-.5.013V49H62.75v.013c-.167,0-.332-.013-.5-.013a29.5,29.5,0,0,0-29.5,29.5c0,.168.01.333.013.5H32.75v31H3.25v-5h-3v8h35.5V79c0-.167,0-.832,0-1,0-14.584,12.416-26,27-26H65.5V228h3V52h73V228h3V52h73V228h3V52h73V228h3V52h40.75c14.584,0,27,11.416,27,26,0,.168,0,.833,0,1v34h35.5v-8Z"/>
      <path d="M372.25,187h-8v34c0,.167,0,.832,0,1,0,14.584-12.416,26-27,26H334.5V72h-3V248h-73V72h-3V248h-73V72h-3V248h-73V72h-3V248H62.75c-14.584,0-27-11.416-27-26,0-.168,0-.833,0-1V187H.25v8h3v-5h29.5v31h.013c0,.167-.013.332-.013.5A29.5,29.5,0,0,0,62.25,251c.168,0,.333-.01.5-.013V251h274.5v-.013c.167,0,.332.013.5.013a29.5,29.5,0,0,0,29.5-29.5c0-.168-.01-.333-.013-.5h.013V190h29.5v5h3v-8h-27.5Z"/>
    </g>
  </g>
</svg>
