<svg xmlns="http://www.w3.org/2000/svg" viewBox="0 0 400 300">
  <defs>
    <style>
      .cls-1 {
        fill: #ccc;
      }

      .cls-2 {
        fill: #3fa9f5;
      }

      .cls-3 {
        fill: none;
        stroke: #e6e6e6;
        stroke-miterlimit: 10;
        stroke-width: 0.866px;
        opacity: 0.01;
      }
    </style>
  </defs>
  <title>bryggio_ui_1</title>
  <g id="Layer_3" data-name="Layer 3">
    <path id="Content" class="cls-1" d="M396.75,113h-32.5V79c0-.167,0-.832,0-1,0-14.584-12.416-26-27-26H62.75c-14.584,0-27,11.416-27,26,0,.168,0,.833,0,1v34H.5v74H35.75v34c0,.167,0,.832,0,1,0,14.584,12.416,26,27,26h274.5c14.584,0,27-11.416,27-26,0-.168,0-.833,0-1V187H399.5V113Z"/>
    <polygon id="Water" class="cls-2" points="113.5 300.5 113.5 111.5 287.5 111.5 287.5 300.5 213.5 300.5 213.5 186.5 189.5 186.5 189.5 300.5 113.5 300.5"/>
    <g id="Pipe">
      <path d="M187.5,248v52.5h8v-3h-5V251h20v46.5h-5v3h8v-115h-26Zm3-59.5h20V248h-20Z"/>
      <path d="M396.75,105v5h-29.5V79h-.013c0-.167.013-.332.013-.5A29.5,29.5,0,0,0,337.75,49c-.168,0-.333.01-.5.013V49H62.75v.013c-.167,0-.332-.013-.5-.013a29.5,29.5,0,0,0-29.5,29.5c0,.168.01.333.013.5H32.75v31H3.25v-5H.5v8H35.75V79c0-.167,0-.832,0-1,0-14.584,12.416-26,27-26h274.5c14.584,0,27,11.416,27,26,0,.168,0,.833,0,1v34H399.5v-8Z"/>
      <path d="M372.25,187h-8v34c0,.167,0,.832,0,1,0,14.584-12.416,26-27,26H289l1.5-.011L289.489,110.5,110.5,110V248H62.75c-14.584,0-27-11.416-27-26,0-.168,0-.833,0-1V187H.5v8H3.25v-5h29.5v31h.013c0,.167-.013.332-.013.5A29.5,29.5,0,0,0,62.25,251c.168,0,.333-.01.5-.013V251H110.5v46.5h-5v3h8V113l173.011.492.989,134.515V300.5h8v-3h-5V251h46.75v-.013c.167,0,.332.013.5.013a29.5,29.5,0,0,0,29.5-29.5c0-.168-.01-.333-.013-.5h.013V190h29.5v5h2.75v-8H372.25Z"/>
      <g>
        <polygon points="0.25 110 0.25 113 0.5 113 0.5 105 0.25 105 0.25 110"/>
        <polygon points="399.5 105 399.5 113 399.75 113 399.75 110 399.75 105 399.5 105"/>
        <polygon points="399.5 195 399.75 195 399.75 190 399.75 187 399.5 187 399.5 195"/>
        <polygon points="0.25 190 0.25 195 0.5 195 0.5 187 0.25 187 0.25 190"/>
      </g>
    </g>
    <rect id="Boun" class="cls-3" width="400" height="300"/>
  </g>
</svg>
